HIERARCHY
ROOT joint_Root
{
	OFFSET 0.0 0.0 0.0
	CHANNELS 6 Xposition Yposition Zposition Zrotation Xrotation Yrotation 
	JOINT Hips
	{
		OFFSET -0.726466 93.3139 -2.00062
		CHANNELS 6 Xposition Yposition Zposition Zrotation Xrotation Yrotation 
		JOINT Spine
		{
			OFFSET 15.7357 0.0 0.0
			CHANNELS 6 Xposition Yposition Zposition Zrotation Xrotation Yrotation 
			JOINT Chest
			{
				OFFSET 8.98455 -0.406207 0.0
				CHANNELS 6 Xposition Yposition Zposition Zrotation Xrotation Yrotation 
				JOINT Neck
				{
					OFFSET 16.3773 0.0 0.0
					CHANNELS 6 Xposition Yposition Zposition Zrotation Xrotation Yrotation 
					JOINT Head
					{
						OFFSET 6.45672 0.0 0.0
						CHANNELS 6 Xposition Yposition Zposition Zrotation Xrotation Yrotation 
						End Site
						{
							OFFSET 0.0 0.0 0.0
						}
					}
				}
				JOINT Shoulder_L
				{
					OFFSET 12.9942 -0.242716 4.98039
					CHANNELS 6 Xposition Yposition Zposition Zrotation Xrotation Yrotation 
					JOINT UpperArm_L
					{
						OFFSET 5.34809 0.0 0.0
						CHANNELS 6 Xposition Yposition Zposition Zrotation Xrotation Yrotation 
						JOINT LowerArm_L
						{
							OFFSET 24.3286 1.87007e-05 0.0
							CHANNELS 6 Xposition Yposition Zposition Zrotation Xrotation Yrotation 
							JOINT Hand_L
							{
								OFFSET 22.2916 0.0 0.0
								CHANNELS 6 Xposition Yposition Zposition Zrotation Xrotation Yrotation 
								End Site
								{
									OFFSET 0.0 0.0 0.0
								}
							}
						}
					}
				}
				JOINT Shoulder_R
				{
					OFFSET 12.9945 -0.242716 -4.98039
					CHANNELS 6 Xposition Yposition Zposition Zrotation Xrotation Yrotation 
					JOINT UpperArm_R
					{
						OFFSET -5.34813 0.0 0.0
						CHANNELS 6 Xposition Yposition Zposition Zrotation Xrotation Yrotation 
						JOINT LowerArm_R
						{
							OFFSET -24.3289 0.000322201 0.0
							CHANNELS 6 Xposition Yposition Zposition Zrotation Xrotation Yrotation 
							JOINT Hand_R
							{
								OFFSET -22.2915 -0.000108084 0.0
								CHANNELS 6 Xposition Yposition Zposition Zrotation Xrotation Yrotation 
								End Site
								{
									OFFSET 0.0 0.0 0.0
								}
							}
						}
					}
				}
			}
		}
		JOINT UpperLeg_L
		{
			OFFSET -2.19248 -6.46944 0.0
			CHANNELS 6 Xposition Yposition Zposition Zrotation Xrotation Yrotation 
			JOINT LowerLeg_L
			{
				OFFSET 39.0811 0.0 -1.23785e-05
				CHANNELS 6 Xposition Yposition Zposition Zrotation Xrotation Yrotation 
				JOINT Foot_L
				{
					OFFSET 40.9854 0.0 -1.26872e-05
					CHANNELS 6 Xposition Yposition Zposition Zrotation Xrotation Yrotation 
					JOINT Toes_L
					{
						OFFSET 11.7543 0.0 0.0
						CHANNELS 6 Xposition Yposition Zposition Zrotation Xrotation Yrotation 
						End Site
						{
							OFFSET 0.0 0.0 0.0
						}
					}
				}
			}
		}
		JOINT UpperLeg_R
		{
			OFFSET -2.19251 6.46944 0.0
			CHANNELS 6 Xposition Yposition Zposition Zrotation Xrotation Yrotation 
			JOINT LowerLeg_R
			{
				OFFSET -39.0811 -0.00228153 -0.0401928
				CHANNELS 6 Xposition Yposition Zposition Zrotation Xrotation Yrotation 
				JOINT Foot_R
				{
					OFFSET -40.9854 0.0 0.0
					CHANNELS 6 Xposition Yposition Zposition Zrotation Xrotation Yrotation 
					JOINT Toes_R
					{
						OFFSET -11.7543 0.0 0.0
						CHANNELS 6 Xposition Yposition Zposition Zrotation Xrotation Yrotation 
						End Site
						{
							OFFSET 0.0 0.0 0.0
						}
					}
				}
			}
		}
	}
}
MOTION
Frames:	8
Frame Time:	0.0333333
0.000000 0.000000 0.000000 0.000000 0.000000 -0.000000 131.364000 87.477200 158.548000 91.408800 -54.134300 3.555910 15.735700 0.000005 -0.000001 96.786300 81.664600 -96.940300 8.984550 -0.406207 -0.000000 8.794370 1.958630 -0.458266 16.377300 -0.000001 -0.000001 6.551570 -13.919700 3.579520 6.456720 -0.000001 -0.000000 0.347951 -23.399500 -1.164340 12.994200 -0.242716 4.980390 -89.292900 -1.695920 -67.361500 5.348090 -0.000007 -0.000001 -72.483200 28.570600 5.101440 24.328600 0.000019 0.000005 4.603410 9.852670 -25.199200 22.291600 -0.000001 0.000005 1.914460 5.504580 -6.718480 12.994500 -0.242716 -4.980390 89.260200 1.888950 -68.608100 -5.348130 -0.000001 -0.000004 -55.140300 30.920300 -32.422400 -24.328900 0.000322 -0.000009 5.239400 5.130330 -45.727200 -22.291500 -0.000108 -0.000004 6.638590 5.525780 -7.610650 -2.192480 -6.469440 -0.000000 -165.425000 -2.546950 -22.417500 39.081100 -0.000007 -0.000012 -0.247846 0.609953 22.114100 40.985400 -0.000006 -0.000013 -14.745100 3.444920 -50.414600 11.754300 -0.000000 0.000003 -0.011687 -0.115848 -21.299100 -2.192510 6.469440 -0.000001 178.483000 -8.944420 -176.815000 -39.081100 -0.002282 -0.040193 0.012439 -0.012740 35.686200 -40.985400 0.000008 0.000006 10.998600 4.829990 -79.065400 -11.754300 -0.000006 -0.000006 -2.714920 -2.839300 -24.293400
0.000000 0.000000 0.000000 0.000000 0.000000 -0.000000 130.130000 87.104900 162.432000 93.304600 -56.909200 5.789580 15.735700 0.000005 -0.000001 96.564600 81.321300 -97.234500 8.984550 -0.406207 -0.000000 9.493600 1.962880 -1.501880 16.377300 -0.000001 -0.000001 6.483620 -13.232700 3.441400 6.456720 -0.000001 -0.000000 0.557784 -22.618000 -0.455022 12.994200 -0.242716 4.980390 -89.507600 -1.174840 -67.259500 5.348090 -0.000007 -0.000001 -70.865400 28.082500 3.229910 24.328600 0.000019 0.000005 4.108590 8.597140 -25.665200 22.291600 -0.000001 0.000005 2.851750 5.511900 -7.019870 12.994500 -0.242716 -4.980390 88.948300 2.726030 -68.894300 -5.348130 -0.000001 -0.000004 -56.096100 30.843700 -29.988400 -24.328900 0.000322 -0.000009 5.068000 5.252180 -44.098600 -22.291500 -0.000108 -0.000004 6.735590 5.525670 -7.605780 -2.192480 -6.469440 -0.000000 -167.631000 -4.497410 -23.336600 39.081100 -0.000007 -0.000012 -0.209418 0.359005 30.256700 40.985400 -0.000006 -0.000013 -12.900000 2.661290 -53.154200 11.754300 -0.000000 0.000003 -0.006605 -0.076246 -19.680400 -2.192510 6.469440 -0.000001 175.789000 -10.063500 -177.672000 -39.081100 -0.002282 -0.040193 0.030148 -0.030600 41.289500 -40.985400 0.000008 0.000006 11.085500 5.978330 -76.628300 -11.754300 -0.000006 -0.000006 -0.045853 -0.282651 -28.202000
0.000000 0.000000 0.000000 0.000000 0.000000 -0.000000 128.782000 87.009200 166.005000 94.121800 -59.207700 7.424730 15.735700 0.000005 -0.000001 95.672000 80.923700 -96.629000 8.984550 -0.406207 -0.000000 10.316700 1.760870 -2.071970 16.377300 -0.000001 -0.000001 6.609920 -12.771800 3.193140 6.456720 -0.000001 -0.000000 0.538368 -21.517100 0.072676 12.994200 -0.242716 4.980390 -89.501600 -1.205680 -67.538700 5.348090 -0.000007 -0.000001 -69.454700 27.770300 0.544481 24.328600 0.000019 0.000005 3.653120 7.600030 -25.768100 22.291600 -0.000001 0.000005 3.526310 5.510740 -6.972310 12.994500 -0.242716 -4.980390 88.934800 2.754310 -68.847400 -5.348130 -0.000001 -0.000004 -59.137500 30.705900 -26.951800 -24.328900 0.000322 -0.000009 4.832200 5.536460 -41.232900 -22.291500 -0.000108 -0.000004 6.753630 5.530980 -7.838150 -2.192480 -6.469440 -0.000000 -169.006000 -7.107430 -22.437200 39.081100 -0.000007 -0.000012 -0.176754 0.244232 35.894200 40.985400 -0.000006 -0.000013 -11.138000 4.219610 -58.232700 11.754300 -0.000000 0.000003 -0.002629 -0.036334 -18.054300 -2.192510 6.469440 -0.000001 173.405000 -9.244680 179.543000 -39.081100 -0.002282 -0.040193 0.083344 -0.069373 49.102600 -40.985400 0.000008 0.000006 11.307500 8.745480 -70.425000 -11.754300 -0.000006 -0.000006 -0.102344 -0.450334 -35.380000
0.000000 0.000000 0.000000 0.000000 0.000000 -0.000000 127.345000 87.149300 169.160000 93.496300 -61.520700 7.831520 15.735700 0.000005 -0.000001 94.330200 80.581800 -95.240600 8.984550 -0.406207 -0.000000 11.030600 1.385680 -1.953700 16.377300 -0.000001 -0.000001 6.683890 -12.163400 2.718550 6.456720 -0.000001 -0.000000 0.536430 -20.104300 -0.102639 12.994200 -0.242716 4.980390 -89.480700 -1.282290 -67.952100 5.348090 -0.000007 -0.000001 -67.944500 27.927500 -2.378360 24.328600 0.000019 0.000005 3.664250 7.484340 -26.180900 22.291600 -0.000001 0.000005 4.088560 5.507370 -6.832840 12.994500 -0.242716 -4.980390 89.036500 2.488240 -68.824100 -5.348130 -0.000001 -0.000004 -62.180400 30.952500 -24.042100 -24.328900 0.000322 -0.000009 4.475950 5.771680 -37.902800 -22.291500 -0.000108 -0.000004 6.486090 5.533690 -7.958550 -2.192480 -6.469440 -0.000000 -169.255000 -8.503600 -20.302100 39.081100 -0.000007 -0.000012 -0.222338 0.274950 38.961100 40.985400 -0.000006 -0.000013 -9.978050 4.112840 -62.321800 11.754300 -0.000000 0.000003 -0.001297 -0.019544 -17.371500 -2.192510 6.469440 -0.000001 171.881000 -7.916340 175.087000 -39.081100 -0.002282 -0.040193 0.191056 -0.119345 57.570300 -40.985400 0.000008 0.000006 8.461570 11.310800 -61.103100 -11.754300 -0.000006 -0.000006 -0.094312 -0.430220 -34.502000
0.000000 0.000000 0.000000 0.000000 0.000000 -0.000000 125.738000 87.398000 171.697000 91.322100 -63.790600 6.384090 15.735700 0.000005 -0.000001 92.546000 80.514300 -93.169800 8.984550 -0.406207 -0.000000 11.192300 0.817650 -1.327180 16.377300 -0.000001 -0.000001 6.809840 -11.471800 2.117940 6.456720 -0.000001 -0.000000 0.812559 -18.419800 -0.348130 12.994200 -0.242716 4.980390 -89.493600 -1.260660 -68.112900 5.348090 -0.000007 -0.000001 -65.755600 28.899000 -5.435470 24.328600 0.000019 0.000005 3.670600 7.238400 -26.982800 22.291600 -0.000001 0.000005 4.723680 5.513350 -7.081000 12.994500 -0.242716 -4.980390 88.949400 2.696270 -68.702300 -5.348130 -0.000001 -0.000004 -63.962500 32.021000 -21.355500 -24.328900 0.000322 -0.000009 4.144610 6.027700 -34.615800 -22.291500 -0.000108 -0.000004 6.079350 5.536440 -8.081430 -2.192480 -6.469440 -0.000000 -168.596000 -9.299700 -17.995300 39.081100 -0.000007 -0.000012 -0.299459 0.350791 40.486900 40.985400 -0.000006 -0.000013 -9.468470 3.185510 -65.589000 11.754300 -0.000000 0.000003 -0.000436 -0.007038 -16.863300 -2.192510 6.469440 -0.000001 171.646000 -5.939580 169.824000 -39.081100 -0.002282 -0.040193 0.353231 -0.164415 64.842300 -40.985400 0.000008 0.000006 1.680630 9.492770 -51.163100 -11.754300 -0.000006 -0.000006 -0.033470 -0.232948 -26.125300
0.000000 0.000000 0.000000 0.000000 0.000000 -0.000000 123.943000 87.901600 173.789000 89.209200 -65.732200 4.579660 15.735700 0.000005 -0.000001 90.343700 80.611000 -90.708900 8.984550 -0.406207 -0.000000 11.012200 0.101479 -0.739860 16.377300 -0.000001 -0.000001 6.966730 -10.825600 1.702120 6.456720 -0.000001 -0.000000 1.083780 -16.717400 -0.650075 12.994200 -0.242716 4.980390 -89.534400 -1.170640 -68.306700 5.348090 -0.000007 -0.000001 -62.887500 30.115500 -8.679870 24.328600 0.000019 0.000005 3.456590 6.463420 -28.217000 22.291600 -0.000001 0.000005 5.025180 5.517380 -7.250490 12.994500 -0.242716 -4.980390 88.816400 2.974390 -68.289500 -5.348130 -0.000001 -0.000004 -65.587200 33.106200 -18.132600 -24.328900 0.000322 -0.000009 4.539000 7.265610 -32.123700 -22.291500 -0.000108 -0.000004 5.778730 5.530390 -7.812240 -2.192480 -6.469440 -0.000000 -168.099000 -8.917740 -15.139700 39.081100 -0.000007 -0.000012 -0.340206 0.406038 39.959300 40.985400 -0.000006 -0.000013 -9.634390 1.221820 -67.898700 11.754300 -0.000000 0.000003 -0.000001 -0.000013 -16.578000 -2.192510 6.469440 -0.000001 172.316000 -2.583450 166.433000 -39.081100 -0.002282 -0.040193 0.419594 -0.161804 68.768400 -40.985400 0.000008 0.000006 0.716643 3.657390 -51.587800 -11.754300 -0.000006 -0.000006 -0.022172 -0.179037 -23.892200
0.000000 0.000000 0.000000 0.000000 0.000000 -0.000000 122.148000 88.600400 175.551000 86.517100 -67.728700 1.934860 15.735700 0.000005 -0.000001 88.435100 80.791900 -88.518800 8.984550 -0.406207 -0.000000 10.643200 -0.501481 -0.120627 16.377300 -0.000001 -0.000001 7.199560 -10.075900 1.508590 6.456720 -0.000001 -0.000000 1.321900 -14.942200 -0.686756 12.994200 -0.242716 4.980390 -89.521900 -1.215370 -68.523300 5.348090 -0.000007 -0.000001 -60.149400 30.236700 -11.877300 24.328600 0.000019 0.000005 3.476500 6.150220 -29.555000 22.291600 -0.000001 0.000005 4.806830 5.520290 -7.374130 12.994500 -0.242716 -4.980390 88.755600 3.054950 -67.825000 -5.348130 -0.000001 -0.000004 -67.602400 33.413000 -14.289300 -24.328900 0.000322 -0.000009 4.782920 8.285030 -30.147800 -22.291500 -0.000108 -0.000004 5.447660 5.528870 -7.745620 -2.192480 -6.469440 -0.000000 -167.573000 -8.412280 -11.923100 39.081100 -0.000007 -0.000012 -0.353088 0.453163 37.925200 40.985400 -0.000006 -0.000013 -10.052100 -1.088620 -69.362700 11.754300 -0.000000 0.000003 -0.000011 -0.000141 -16.583100 -2.192510 6.469440 -0.000001 173.682000 1.551750 163.639000 -39.081100 -0.002282 -0.040193 0.412507 -0.154616 69.309800 -40.985400 0.000008 0.000006 3.007860 0.368738 -53.606100 -11.754300 -0.000006 -0.000006 -0.023530 -0.186111 -24.184200
0.000000 0.000000 0.000000 0.000000 0.000000 -0.000000 120.510000 89.303100 177.159000 83.462700 -70.078100 -1.188200 15.735700 0.000005 -0.000001 86.980400 80.963200 -86.804500 8.984550 -0.406207 -0.000000 10.285100 -0.941908 0.436415 16.377300 -0.000001 -0.000001 7.418690 -9.155360 1.296540 6.456720 -0.000001 -0.000000 1.529490 -13.037000 -0.438846 12.994200 -0.242716 4.980390 -89.427100 -1.474710 -68.765900 5.348090 -0.000007 -0.000001 -58.097100 29.217200 -14.419700 24.328600 0.000019 0.000005 3.565510 5.875600 -31.328000 22.291600 -0.000001 0.000005 5.020840 5.523300 -7.503220 12.994500 -0.242716 -4.980390 88.860300 2.762380 -67.570000 -5.348130 -0.000001 -0.000004 -69.725400 32.885100 -10.545800 -24.328900 0.000322 -0.000009 4.695320 8.866130 -28.058500 -22.291500 -0.000108 -0.000004 4.813720 5.532920 -7.924230 -2.192480 -6.469440 -0.000000 -167.086000 -9.251750 -8.539140 39.081100 -0.000007 -0.000012 -0.333286 0.471623 35.248800 40.985400 -0.000006 -0.000013 -10.196100 -2.731760 -70.202900 11.754300 -0.000000 0.000003 -0.000020 -0.000257 -16.587600 -2.192510 6.469440 -0.000001 175.067000 4.946550 161.009000 -39.081100 -0.002282 -0.040193 0.383636 -0.161181 67.042100 -40.985400 0.000008 0.000006 1.489240 0.843726 -54.134600 -11.754300 -0.000006 -0.000006 -0.023759 -0.187285 -24.232700
